<?xml version="1.0" encoding="utf-8"?>
<!-- Generator: Adobe Illustrator 24.1.1, SVG Export Plug-In . SVG Version: 6.00 Build 0)  -->
<svg version="1.1" id="Layer_1" xmlns="http://www.w3.org/2000/svg" xmlns:xlink="http://www.w3.org/1999/xlink" x="0px" y="0px"
	 viewBox="0 0 512 512" style="enable-background:new 0 0 512 512;" xml:space="preserve">
<style type="text/css">
	.st0{fill:#555555;}
</style>
<g>
	<path class="st0" d="M415.2,49.8c16.7,13.1,28.3,34.3,32.9,56.4l1.7,0.6l52.4,24.2c6,2.8,9.8,8.7,9.8,15.3v316.6
		c0,11.2-10.8,19.3-21.7,16.2l-145.1-40.9l-172.6,47.5c-3.1,0.9-6.4,0.8-9.5-0.1L12.1,440.8C4.9,438.6,0,432.1,0,424.6V102.4
		C0,91.1,10.9,83,21.9,86.2l146,42.5l74.2-22.7l3.1-0.7c2.9-16.8,10.9-32.9,24.3-48.6c15.9-18.7,43.9-29.6,71.2-30.9
		C369,24.4,390.6,30.5,415.2,49.8z M34.1,124.9v287.1l124.7,37.1V161.2L34.1,124.9z M244.3,140.7l-51.3,15.7v288.7l129.7-35.7
		l0-84.3c0-9.3,7.6-16.9,17-16.9c9.4,0,17.1,7.5,17.1,16.9v81.4l121.2,34.2V157.1l-28.7-13.3c-0.5,2.8-1.1,5.6-1.9,8.3
		c-5.6,19.8-14.8,37.8-27.5,54l-63.4,79.2c-7.1,8.9-21,8.4-27.5-1l-59.3-85.8c-9.8-13.7-16.6-25.8-20.5-36.8
		C246.7,154.8,245.1,147.9,244.3,140.7z M342.4,59.5c-18.6,0.9-37.7,8.4-46.8,19c-11,12.8-16.3,24.8-17.4,36.9
		c-1.3,14.6-0.4,24.9,3.2,35.1c2.7,7.6,8.1,17.1,16.3,28.7l46.4,67.1l48.9-61c9.9-12.7,17.1-26.8,21.5-42.4
		c6.1-21.5-3.1-53.1-20.5-66.7C376.2,62.3,362.8,58.5,342.4,59.5z M345.9,77.3c28.3,0,51.2,22.7,51.2,50.6c0,28-22.9,50.6-51.2,50.6
		c-28.3,0-51.2-22.7-51.2-50.6C294.7,100,317.6,77.3,345.9,77.3z M345.9,111.1c-9.4,0-17.1,7.6-17.1,16.9c0,9.3,7.6,16.9,17.1,16.9
		c9.4,0,17.1-7.6,17.1-16.9C362.9,118.6,355.3,111.1,345.9,111.1z"/>
</g>
</svg>
